<?xml version="1.0" standalone="no"?><!-- Generator: Gravit.io --><svg xmlns="http://www.w3.org/2000/svg" xmlns:xlink="http://www.w3.org/1999/xlink" style="isolation:isolate" viewBox="0 0 1451 653" width="1451" height="653"><defs><clipPath id="_clipPath_jVUDybik6J0v5vZhn4lFy9bzounh4j55"><rect width="1451" height="653"/></clipPath></defs><g clip-path="url(#_clipPath_jVUDybik6J0v5vZhn4lFy9bzounh4j55)"><clipPath id="_clipPath_PxtYVLJmyms76LhtkaJQMIqTqYgeJUFI"><rect x="0" y="0" width="1451" height="653" transform="matrix(1,0,0,1,0,0)" fill="rgb(255,255,255)"/></clipPath><g clip-path="url(#_clipPath_PxtYVLJmyms76LhtkaJQMIqTqYgeJUFI)"><g id="Group"><path d=" M 102.305 499.134 C 101.477 499.134 100.806 498.463 100.806 497.635 C 100.806 496.807 101.477 496.136 102.305 496.136 C 112.632 496.125 121.001 487.756 121.012 477.428 C 121.012 476.6 121.683 475.929 122.511 475.929 C 123.339 475.929 124.01 476.6 124.01 477.428 C 123.993 489.409 114.285 499.117 102.305 499.134 L 102.305 499.134 L 102.305 499.134 Z " fill="rgb(225,225,225)"/><path d=" M 44.633 275.265 L 24.107 275.265 C 23.279 275.265 22.608 274.593 22.608 273.766 C 22.608 272.938 23.279 272.267 24.107 272.267 L 44.633 272.267 C 54.166 272.256 61.891 264.531 61.902 254.998 L 61.902 190.801 C 61.913 179.613 70.98 170.546 82.168 170.535 L 107.781 170.535 C 117.313 170.524 125.038 162.799 125.049 153.267 L 125.049 3.158 C 125.049 2.33 125.72 1.659 126.548 1.659 C 127.376 1.659 128.047 2.33 128.047 3.158 L 128.047 153.287 C 128.036 164.475 118.969 173.542 107.781 173.553 L 82.158 173.553 C 72.626 173.564 64.901 181.289 64.89 190.821 L 64.89 255.018 C 64.868 266.195 55.81 275.248 44.633 275.265 L 44.633 275.265 L 44.633 275.265 Z " fill="rgb(225,225,225)"/><path d=" M 223.913 92.198 L 167.671 92.198 C 166.843 92.198 166.172 91.527 166.172 90.699 C 166.172 89.871 166.843 89.2 167.671 89.2 L 223.913 89.2 C 224.741 89.2 225.412 89.871 225.412 90.699 C 225.412 91.527 224.741 92.198 223.913 92.198 Z " fill="rgb(225,225,225)"/><path d=" M 99.087 112.484 L 54.987 112.484 C 54.159 112.484 53.488 111.813 53.488 110.985 C 53.488 110.157 54.159 109.486 54.987 109.486 L 99.087 109.486 C 99.915 109.486 100.586 110.157 100.586 110.985 C 100.586 111.813 99.915 112.484 99.087 112.484 Z " fill="rgb(225,225,225)"/><path d=" M 154.859 112.484 L 142.118 112.484 C 141.29 112.484 140.619 111.813 140.619 110.985 C 140.619 110.157 141.29 109.486 142.118 109.486 L 154.859 109.486 C 155.687 109.486 156.358 110.157 156.358 110.985 C 156.358 111.813 155.687 112.484 154.859 112.484 Z " fill="rgb(225,225,225)"/><path d=" M 51.639 51.395 L 8.478 51.395 C 7.65 51.395 6.979 50.724 6.979 49.896 C 6.979 49.069 7.65 48.397 8.478 48.397 L 51.639 48.397 C 52.467 48.397 53.138 49.069 53.138 49.896 C 53.138 50.724 52.467 51.395 51.639 51.395 Z " fill="rgb(225,225,225)"/><path d=" M 89.903 51.395 L 67.738 51.395 C 66.91 51.395 66.239 50.724 66.239 49.896 C 66.239 49.069 66.91 48.397 67.738 48.397 L 89.903 48.397 C 90.731 48.397 91.402 49.069 91.402 49.896 C 91.402 50.724 90.731 51.395 89.903 51.395 Z " fill="rgb(225,225,225)"/><path d=" M 180.982 51.395 L 153.12 51.395 C 152.293 51.395 151.621 50.724 151.621 49.896 C 151.621 49.069 152.293 48.397 153.12 48.397 L 180.982 48.397 C 181.809 48.397 182.481 49.069 182.481 49.896 C 182.481 50.724 181.809 51.395 180.982 51.395 Z " fill="rgb(225,225,225)"/><path d=" M 218.746 51.395 L 199.249 51.395 C 198.421 51.395 197.75 50.724 197.75 49.896 C 197.75 49.069 198.421 48.397 199.249 48.397 L 218.746 48.397 C 219.574 48.397 220.245 49.069 220.245 49.896 C 220.245 50.724 219.574 51.395 218.746 51.395 Z " fill="rgb(225,225,225)"/><path d=" M 310.544 51.395 L 296.284 51.395 C 295.456 51.395 294.785 50.724 294.785 49.896 C 294.785 49.069 295.456 48.397 296.284 48.397 L 310.564 48.397 C 311.392 48.403 312.059 49.079 312.053 49.906 C 312.048 50.734 311.372 51.401 310.544 51.395 Z " fill="rgb(225,225,225)"/><path d=" M 361.24 51.395 L 327.583 51.395 C 326.755 51.395 326.084 50.724 326.084 49.896 C 326.084 49.069 326.755 48.397 327.583 48.397 L 361.24 48.397 C 362.068 48.397 362.739 49.069 362.739 49.896 C 362.739 50.724 362.068 51.395 361.24 51.395 Z " fill="rgb(225,225,225)"/><path d=" M 77.481 71.682 L 61.982 71.682 C 61.154 71.682 60.483 71.011 60.483 70.183 C 60.483 69.355 61.154 68.684 61.982 68.684 L 77.481 68.684 C 78.309 68.684 78.98 69.355 78.98 70.183 C 78.98 71.011 78.309 71.682 77.481 71.682 Z " fill="rgb(225,225,225)"/><path d=" M 110.789 153.287 L 92.301 153.287 C 91.474 153.287 90.802 152.616 90.802 151.788 C 90.802 150.96 91.474 150.289 92.301 150.289 L 110.789 150.289 C 111.617 150.289 112.288 150.96 112.288 151.788 C 112.288 152.616 111.617 153.287 110.789 153.287 Z " fill="rgb(225,225,225)"/><path d=" M 88.734 173.573 L 36.079 173.573 C 35.251 173.573 34.58 172.902 34.58 172.074 C 34.58 171.246 35.251 170.575 36.079 170.575 L 88.734 170.575 C 89.562 170.575 90.233 171.246 90.233 172.074 C 90.233 172.902 89.562 173.573 88.734 173.573 Z " fill="rgb(225,225,225)"/><path d=" M 106.602 132.771 L 91.422 132.771 C 90.594 132.771 89.923 132.099 89.923 131.272 C 89.923 130.444 90.594 129.773 91.422 129.773 L 106.602 129.773 C 107.43 129.773 108.101 130.444 108.101 131.272 C 108.101 132.099 107.43 132.771 106.602 132.771 Z " fill="rgb(225,225,225)"/><path d=" M 46.023 234.692 L 7.479 234.692 C 6.651 234.692 5.98 234.021 5.98 233.193 C 5.98 232.365 6.651 231.694 7.479 231.694 L 46.053 231.694 C 46.88 231.702 47.545 232.38 47.537 233.208 C 47.528 234.036 46.85 234.7 46.023 234.692 Z " fill="rgb(225,225,225)"/><path d=" M 102.015 234.692 L 80.03 234.692 C 79.202 234.692 78.531 234.021 78.531 233.193 C 78.531 232.365 79.202 231.694 80.03 231.694 L 102.015 231.694 C 102.843 231.694 103.514 232.365 103.514 233.193 C 103.514 234.021 102.843 234.692 102.015 234.692 Z " fill="rgb(225,225,225)"/><path d=" M 195.432 234.692 L 178.613 234.692 C 177.785 234.692 177.114 234.021 177.114 233.193 C 177.114 232.365 177.785 231.694 178.613 231.694 L 195.432 231.694 C 196.26 231.694 196.931 232.365 196.931 233.193 C 196.931 234.021 196.26 234.692 195.432 234.692 Z " fill="rgb(225,225,225)"/><path d=" M 250.954 234.692 L 212.151 234.692 C 211.323 234.692 210.652 234.021 210.652 233.193 C 210.652 232.365 211.323 231.694 212.151 231.694 L 250.944 231.694 C 251.772 231.691 252.446 232.36 252.448 233.188 C 252.451 234.016 251.782 234.689 250.954 234.692 Z " fill="rgb(225,225,225)"/><path d=" M 165.972 254.978 L 142.667 254.978 C 141.84 254.978 141.168 254.307 141.168 253.479 C 141.168 252.651 141.84 251.98 142.667 251.98 L 165.972 251.98 C 166.8 251.98 167.471 252.651 167.471 253.479 C 167.471 254.307 166.8 254.978 165.972 254.978 Z " fill="rgb(225,225,225)"/><path d=" M 128.237 193.889 L 112.518 193.889 C 111.69 193.889 111.019 193.218 111.019 192.39 C 111.019 191.562 111.69 190.891 112.518 190.891 L 128.237 190.891 C 129.065 190.891 129.736 191.562 129.736 192.39 C 129.736 193.218 129.065 193.889 128.237 193.889 Z " fill="rgb(225,225,225)"/><path d=" M 191.914 193.889 L 146.615 193.889 C 145.787 193.889 145.116 193.218 145.116 192.39 C 145.116 191.562 145.787 190.891 146.615 190.891 L 191.914 190.891 C 192.742 190.891 193.413 191.562 193.413 192.39 C 193.413 193.218 192.742 193.889 191.914 193.889 Z " fill="rgb(225,225,225)"/><path d=" M 230.019 193.889 L 206.574 193.889 C 205.747 193.889 205.075 193.218 205.075 192.39 C 205.075 191.562 205.747 190.891 206.574 190.891 L 230.019 190.891 C 230.846 190.891 231.518 191.562 231.518 192.39 C 231.518 193.218 230.846 193.889 230.019 193.889 Z " fill="rgb(225,225,225)"/><path d=" M 138.48 214.176 L 79.98 214.176 C 79.152 214.176 78.481 213.505 78.481 212.677 C 78.481 211.849 79.152 211.178 79.98 211.178 L 138.48 211.178 C 139.308 211.178 139.979 211.849 139.979 212.677 C 139.979 213.505 139.308 214.176 138.48 214.176 Z " fill="rgb(225,225,225)"/><path d=" M 210.562 214.176 L 167.741 214.176 C 166.913 214.176 166.242 213.505 166.242 212.677 C 166.242 211.849 166.913 211.178 167.741 211.178 L 210.562 211.178 C 211.39 211.178 212.061 211.849 212.061 212.677 C 212.061 213.505 211.39 214.176 210.562 214.176 Z " fill="rgb(225,225,225)"/><path d=" M 282.004 214.176 L 225.662 214.176 C 224.834 214.176 224.163 213.505 224.163 212.677 C 224.163 211.849 224.834 211.178 225.662 211.178 L 281.994 211.178 C 282.821 211.175 283.495 211.844 283.498 212.672 C 283.5 213.5 282.831 214.173 282.004 214.176 Z " fill="rgb(225,225,225)"/><path d=" M 36.249 214.176 L 14.983 214.176 C 14.156 214.176 13.484 213.505 13.484 212.677 C 13.484 211.849 14.156 211.178 14.983 211.178 L 36.249 211.178 C 37.077 211.178 37.748 211.849 37.748 212.677 C 37.748 213.505 37.077 214.176 36.249 214.176 Z " fill="rgb(225,225,225)"/><path d=" M 74.903 295.781 L 38.757 295.781 C 37.93 295.781 37.258 295.11 37.258 294.282 C 37.258 293.454 37.93 292.783 38.757 292.783 L 74.903 292.783 C 75.731 292.783 76.402 293.454 76.402 294.282 C 76.402 295.11 75.731 295.781 74.903 295.781 Z " fill="rgb(225,225,225)"/><path d=" M 121.402 295.781 L 90.652 295.781 C 89.825 295.781 89.153 295.11 89.153 294.282 C 89.153 293.454 89.825 292.783 90.652 292.783 L 121.402 292.783 C 122.23 292.783 122.901 293.454 122.901 294.282 C 122.901 295.11 122.23 295.781 121.402 295.781 Z " fill="rgb(225,225,225)"/><path d=" M 219.006 295.781 L 183.95 295.781 C 183.122 295.781 182.451 295.11 182.451 294.282 C 182.451 293.454 183.122 292.783 183.95 292.783 L 219.006 292.783 C 219.834 292.783 220.505 293.454 220.505 294.282 C 220.505 295.11 219.834 295.781 219.006 295.781 L 219.006 295.781 L 219.006 295.781 Z " fill="rgb(225,225,225)"/><path d=" M 95.03 275.265 L 71.216 275.265 C 70.388 275.265 69.717 274.593 69.717 273.766 C 69.717 272.938 70.388 272.267 71.216 272.267 L 95.03 272.267 C 95.857 272.267 96.529 272.938 96.529 273.766 C 96.529 274.593 95.857 275.265 95.03 275.265 Z " fill="rgb(225,225,225)"/><path d=" M 117.654 275.265 L 106.662 275.265 C 105.834 275.265 105.163 274.593 105.163 273.766 C 105.163 272.938 105.834 272.267 106.662 272.267 L 117.654 272.267 C 118.482 272.267 119.153 272.938 119.153 273.766 C 119.153 274.593 118.482 275.265 117.654 275.265 Z " fill="rgb(225,225,225)"/><path d=" M 130.835 377.156 L 104.053 377.156 C 103.226 377.156 102.554 376.485 102.554 375.657 C 102.554 374.829 103.226 374.158 104.053 374.158 L 130.845 374.158 C 131.673 374.161 132.342 374.834 132.339 375.662 C 132.337 376.49 131.663 377.159 130.835 377.156 Z " fill="rgb(225,225,225)"/><path d=" M 162.124 397.442 L 153.27 397.442 C 152.442 397.442 151.771 396.771 151.771 395.943 C 151.771 395.115 152.442 394.444 153.27 394.444 L 162.124 394.444 C 162.952 394.444 163.623 395.115 163.623 395.943 C 163.623 396.771 162.952 397.442 162.124 397.442 Z " fill="rgb(225,225,225)"/><path d=" M 54.017 336.353 L 8.478 336.353 C 7.65 336.353 6.979 335.682 6.979 334.854 C 6.979 334.027 7.65 333.355 8.478 333.355 L 54.047 333.355 C 54.875 333.364 55.539 334.041 55.531 334.869 C 55.523 335.697 54.845 336.362 54.017 336.353 Z " fill="rgb(225,225,225)"/><path d=" M 184.359 336.353 L 167.171 336.353 C 166.343 336.353 165.672 335.682 165.672 334.854 C 165.672 334.027 166.343 333.355 167.171 333.355 L 184.359 333.355 C 185.187 333.355 185.858 334.027 185.858 334.854 C 185.858 335.682 185.187 336.353 184.359 336.353 Z " fill="rgb(225,225,225)"/><path d=" M 78.82 356.64 L 58.444 356.64 C 57.616 356.64 56.945 355.969 56.945 355.141 C 56.945 354.313 57.616 353.642 58.444 353.642 L 78.82 353.642 C 79.648 353.642 80.319 354.313 80.319 355.141 C 80.319 355.969 79.648 356.64 78.82 356.64 Z " fill="rgb(225,225,225)"/><path d=" M 130.835 356.64 L 93.001 356.64 C 92.173 356.64 91.502 355.969 91.502 355.141 C 91.502 354.313 92.173 353.642 93.001 353.642 L 130.835 353.642 C 131.663 353.642 132.334 354.313 132.334 355.141 C 132.334 355.969 131.663 356.64 130.835 356.64 Z " fill="rgb(225,225,225)"/><path d=" M 182.021 356.64 L 157.767 356.64 C 156.939 356.64 156.268 355.969 156.268 355.141 C 156.268 354.313 156.939 353.642 157.767 353.642 L 182.021 353.642 C 182.849 353.642 183.52 354.313 183.52 355.141 C 183.52 355.969 182.849 356.64 182.021 356.64 Z " fill="rgb(225,225,225)"/><path d=" M 200.538 356.64 L 191.545 356.64 C 190.717 356.64 190.046 355.969 190.046 355.141 C 190.046 354.313 190.717 353.642 191.545 353.642 L 200.538 353.642 C 201.366 353.642 202.037 354.313 202.037 355.141 C 202.037 355.969 201.366 356.64 200.538 356.64 Z " fill="rgb(225,225,225)"/><path d=" M 120.143 438.245 L 79.94 438.245 C 79.112 438.245 78.441 437.574 78.441 436.746 C 78.441 435.918 79.112 435.247 79.94 435.247 L 120.143 435.247 C 120.97 435.247 121.642 435.918 121.642 436.746 C 121.642 437.574 120.97 438.245 120.143 438.245 L 120.143 438.245 L 120.143 438.245 Z " fill="rgb(225,225,225)"/><path d=" M 62.781 438.135 L 24.807 438.135 C 23.979 438.135 23.308 437.464 23.308 436.636 C 23.308 435.808 23.979 435.137 24.807 435.137 L 62.781 435.137 C 63.609 435.137 64.28 435.808 64.28 436.636 C 64.28 437.464 63.609 438.135 62.781 438.135 Z " fill="rgb(225,225,225)"/><path d=" M 70.706 458.531 L 59.074 458.531 C 58.246 458.531 57.575 457.86 57.575 457.032 C 57.575 456.204 58.246 455.533 59.074 455.533 L 70.706 455.533 C 71.534 455.533 72.205 456.204 72.205 457.032 C 72.205 457.86 71.534 458.531 70.706 458.531 Z " fill="rgb(225,225,225)"/><path d=" M 206.574 458.531 L 183.53 458.531 C 182.702 458.531 182.031 457.86 182.031 457.032 C 182.031 456.204 182.702 455.533 183.53 455.533 L 206.584 455.533 C 207.412 455.536 208.081 456.209 208.078 457.037 C 208.076 457.865 207.402 458.534 206.574 458.531 Z " fill="rgb(225,225,225)"/><path d=" M 81.339 417.729 L 65.1 417.729 C 64.272 417.729 63.601 417.057 63.601 416.23 C 63.601 415.402 64.272 414.731 65.1 414.731 L 81.339 414.731 C 82.167 414.731 82.838 415.402 82.838 416.23 C 82.838 417.057 82.167 417.729 81.339 417.729 Z " fill="rgb(225,225,225)"/><path d=" M 104.983 417.729 L 96.229 417.729 C 95.401 417.729 94.73 417.057 94.73 416.23 C 94.73 415.402 95.401 414.731 96.229 414.731 L 104.983 414.731 C 105.811 414.731 106.482 415.402 106.482 416.23 C 106.482 417.057 105.811 417.729 104.983 417.729 Z " fill="rgb(225,225,225)"/><path d=" M 197.9 652.99 C 197.072 652.99 196.401 652.319 196.401 651.491 L 196.401 638.5 C 196.368 628.988 188.654 621.292 179.143 621.281 L 179.143 621.281 L 97.798 621.361 L 97.798 621.361 C 92.423 621.388 87.257 619.278 83.438 615.496 C 79.618 611.714 77.458 606.57 77.431 601.195 L 77.242 544.233 L 77.242 538.517 C 77.247 528.122 68.839 519.683 58.444 519.65 L 27.695 519.65 C 26.867 519.65 26.196 518.979 26.196 518.151 C 26.196 517.323 26.867 516.652 27.695 516.652 L 58.444 516.652 C 70.497 516.668 80.263 526.435 80.279 538.487 L 80.279 544.193 L 80.469 601.155 C 80.491 610.672 88.21 618.378 97.728 618.383 L 97.728 618.383 L 179.073 618.303 L 179.073 618.303 C 190.253 618.309 199.322 627.359 199.349 638.54 L 199.349 651.531 C 199.349 652.359 198.678 653.03 197.85 653.03 L 197.85 653.03 L 197.9 652.99 L 197.9 652.99 Z " fill="rgb(225,225,225)"/><path d=" M 113.207 519.65 L 84.497 519.65 C 83.669 519.65 82.998 518.979 82.998 518.151 C 82.998 517.323 83.669 516.652 84.497 516.652 L 113.207 516.652 C 114.035 516.652 114.706 517.323 114.706 518.151 C 114.706 518.979 114.035 519.65 113.207 519.65 Z " fill="rgb(225,225,225)"/><path d=" M 191.505 519.65 L 128.547 519.65 C 127.719 519.65 127.048 518.979 127.048 518.151 C 127.048 517.323 127.719 516.652 128.547 516.652 L 191.505 516.652 C 192.332 516.652 193.004 517.323 193.004 518.151 C 193.004 518.979 192.332 519.65 191.505 519.65 Z " fill="rgb(225,225,225)"/><path d=" M 65.1 539.936 L 51.639 539.936 C 50.811 539.936 50.14 539.265 50.14 538.437 C 50.14 537.609 50.811 536.938 51.639 536.938 L 65.1 536.938 C 65.928 536.938 66.599 537.609 66.599 538.437 C 66.599 539.265 65.928 539.936 65.1 539.936 Z " fill="rgb(225,225,225)"/><path d=" M 150.932 478.847 L 110.779 478.847 C 109.951 478.847 109.28 478.176 109.28 477.348 C 109.28 476.52 109.951 475.849 110.779 475.849 L 150.932 475.849 C 151.76 475.849 152.431 476.52 152.431 477.348 C 152.431 478.176 151.76 478.847 150.932 478.847 Z " fill="rgb(225,225,225)"/><path d=" M 41.356 499.134 L 8.478 499.134 C 7.65 499.134 6.979 498.463 6.979 497.635 C 6.979 496.807 7.65 496.136 8.478 496.136 L 41.356 496.136 C 42.184 496.136 42.855 496.807 42.855 497.635 C 42.855 498.463 42.184 499.134 41.356 499.134 Z " fill="rgb(225,225,225)"/><path d=" M 133.394 499.134 L 98.687 499.134 C 97.859 499.134 97.188 498.463 97.188 497.635 C 97.188 496.807 97.859 496.136 98.687 496.136 L 133.394 496.136 C 134.222 496.136 134.893 496.807 134.893 497.635 C 134.893 498.463 134.222 499.134 133.394 499.134 Z " fill="rgb(225,225,225)"/><path d=" M 154.18 499.134 L 147.504 499.134 C 146.676 499.134 146.005 498.463 146.005 497.635 C 146.005 496.807 146.676 496.136 147.504 496.136 L 154.18 496.136 C 155.008 496.136 155.679 496.807 155.679 497.635 C 155.679 498.463 155.008 499.134 154.18 499.134 Z " fill="rgb(225,225,225)"/><path d=" M 159.156 580.699 L 126.548 580.699 C 125.72 580.699 125.049 580.028 125.049 579.2 C 125.049 578.372 125.72 577.701 126.548 577.701 L 159.156 577.701 C 159.984 577.701 160.655 578.372 160.655 579.2 C 160.655 580.028 159.984 580.699 159.156 580.699 Z " fill="rgb(225,225,225)"/><path d=" M 185.229 580.699 L 171.698 580.699 C 170.87 580.699 170.199 580.028 170.199 579.2 C 170.199 578.372 170.87 577.701 171.698 577.701 L 185.229 577.701 C 186.057 577.701 186.728 578.372 186.728 579.2 C 186.728 580.028 186.057 580.699 185.229 580.699 Z " fill="rgb(225,225,225)"/><path d=" M 142.218 601.025 L 98.187 601.025 C 97.36 601.025 96.688 600.354 96.688 599.526 C 96.688 598.698 97.36 598.027 98.187 598.027 L 142.218 598.027 C 143.046 598.027 143.717 598.698 143.717 599.526 C 143.717 600.354 143.046 601.025 142.218 601.025 Z " fill="rgb(225,225,225)"/><path d=" M 35.01 560.223 L 1.912 560.223 C 1.084 560.223 0.413 559.551 0.413 558.724 C 0.413 557.896 1.084 557.225 1.912 557.225 L 35.01 557.225 C 35.838 557.225 36.509 557.896 36.509 558.724 C 36.509 559.551 35.838 560.223 35.01 560.223 Z " fill="rgb(225,225,225)"/><path d=" M 131.395 560.223 L 111.798 560.223 C 110.97 560.223 110.299 559.551 110.299 558.724 C 110.299 557.896 110.97 557.225 111.798 557.225 L 131.395 557.225 C 132.223 557.225 132.894 557.896 132.894 558.724 C 132.894 559.551 132.223 560.223 131.395 560.223 Z " fill="rgb(225,225,225)"/><path d=" M 167.191 560.223 L 145.096 560.223 C 144.268 560.223 143.597 559.551 143.597 558.724 C 143.597 557.896 144.268 557.225 145.096 557.225 L 167.191 557.225 C 168.019 557.225 168.69 557.896 168.69 558.724 C 168.69 559.551 168.019 560.223 167.191 560.223 Z " fill="rgb(225,225,225)"/><path d=" M 369.015 601.025 L 329.182 601.025 C 328.354 601.025 327.683 600.354 327.683 599.526 C 327.683 598.698 328.354 598.027 329.182 598.027 L 369.015 598.027 C 369.843 598.027 370.514 598.698 370.514 599.526 C 370.514 600.354 369.843 601.025 369.015 601.025 Z " fill="rgb(225,225,225)"/><path d=" M 1337.582 92.198 L 1285.917 92.198 C 1285.089 92.198 1284.418 91.527 1284.418 90.699 C 1284.418 89.871 1285.089 89.2 1285.917 89.2 L 1337.582 89.2 C 1338.41 89.2 1339.081 89.871 1339.081 90.699 C 1339.081 91.527 1338.41 92.198 1337.582 92.198 Z " fill="rgb(225,225,225)"/><path d=" M 1274.295 92.198 L 1242.986 92.198 C 1242.158 92.198 1241.487 91.527 1241.487 90.699 C 1241.487 89.871 1242.158 89.2 1242.986 89.2 L 1274.295 89.2 C 1275.123 89.2 1275.794 89.871 1275.794 90.699 C 1275.794 91.527 1275.123 92.198 1274.295 92.198 Z " fill="rgb(225,225,225)"/><path d=" M 1194.599 92.198 L 1166.278 92.198 C 1165.45 92.198 1164.779 91.527 1164.779 90.699 C 1164.779 89.871 1165.45 89.2 1166.278 89.2 L 1194.599 89.2 C 1195.427 89.2 1196.098 89.871 1196.098 90.699 C 1196.098 91.527 1195.427 92.198 1194.599 92.198 Z " fill="rgb(225,225,225)"/><path d=" M 1445.42 92.198 L 1420.526 92.198 C 1419.699 92.198 1419.027 91.527 1419.027 90.699 C 1419.027 89.871 1419.699 89.2 1420.526 89.2 L 1445.45 89.2 C 1446.277 89.208 1446.942 89.886 1446.934 90.714 C 1446.925 91.542 1446.247 92.206 1445.42 92.198 L 1445.42 92.198 L 1445.42 92.198 Z " fill="rgb(225,225,225)"/><path d=" M 1287.616 112.484 L 1272.026 112.484 C 1271.199 112.484 1270.527 111.813 1270.527 110.985 C 1270.527 110.157 1271.199 109.486 1272.026 109.486 L 1287.616 109.486 C 1288.444 109.486 1289.115 110.157 1289.115 110.985 C 1289.115 111.813 1288.444 112.484 1287.616 112.484 Z " fill="rgb(225,225,225)"/><path d=" M 1374.128 51.395 L 1310.6 51.395 C 1309.773 51.395 1309.101 50.724 1309.101 49.896 C 1309.101 49.069 1309.773 48.397 1310.6 48.397 L 1374.138 48.397 C 1374.966 48.4 1375.634 49.074 1375.632 49.901 C 1375.629 50.729 1374.956 51.398 1374.128 51.395 Z " fill="rgb(225,225,225)"/><path d=" M 1194.938 51.395 L 1179.509 51.395 C 1178.681 51.395 1178.01 50.724 1178.01 49.896 C 1178.01 49.069 1178.681 48.397 1179.509 48.397 L 1194.938 48.397 C 1195.766 48.397 1196.437 49.069 1196.437 49.896 C 1196.437 50.724 1195.766 51.395 1194.938 51.395 Z " fill="rgb(225,225,225)"/><path d=" M 1166.268 51.395 L 1069.583 51.395 C 1068.755 51.395 1068.084 50.724 1068.084 49.896 C 1068.084 49.069 1068.755 48.397 1069.583 48.397 L 1166.268 48.397 C 1167.096 48.397 1167.767 49.069 1167.767 49.896 C 1167.767 50.724 1167.096 51.395 1166.268 51.395 Z " fill="rgb(225,225,225)"/><path d=" M 1400.12 51.395 L 1387.239 51.395 C 1386.411 51.395 1385.74 50.724 1385.74 49.896 C 1385.74 49.069 1386.411 48.397 1387.239 48.397 L 1400.12 48.397 C 1400.948 48.397 1401.619 49.069 1401.619 49.896 C 1401.619 50.724 1400.948 51.395 1400.12 51.395 Z " fill="rgb(225,225,225)"/><path d=" M 1138.966 71.682 L 1116.731 71.682 C 1115.903 71.682 1115.232 71.011 1115.232 70.183 C 1115.232 69.355 1115.903 68.684 1116.731 68.684 L 1138.986 68.684 C 1139.814 68.689 1140.481 69.365 1140.475 70.193 C 1140.47 71.021 1139.794 71.687 1138.966 71.682 Z " fill="rgb(225,225,225)"/><path d=" M 1351.663 71.682 L 1322.592 71.682 C 1321.765 71.682 1321.093 71.011 1321.093 70.183 C 1321.093 69.355 1321.765 68.684 1322.592 68.684 L 1351.663 68.684 C 1352.491 68.684 1353.162 69.355 1353.162 70.183 C 1353.162 71.011 1352.491 71.682 1351.663 71.682 Z " fill="rgb(225,225,225)"/><path d=" M 1322.003 31.069 L 1291.403 31.069 C 1290.576 31.069 1289.904 30.398 1289.904 29.57 C 1289.904 28.742 1290.576 28.071 1291.403 28.071 L 1322.003 28.071 C 1322.831 28.071 1323.502 28.742 1323.502 29.57 C 1323.502 30.398 1322.831 31.069 1322.003 31.069 Z " fill="rgb(225,225,225)"/><path d=" M 1149.539 31.069 L 1112.234 31.069 C 1111.406 31.069 1110.735 30.398 1110.735 29.57 C 1110.735 28.742 1111.406 28.071 1112.234 28.071 L 1149.529 28.071 C 1150.357 28.068 1151.03 28.737 1151.033 29.565 C 1151.036 30.393 1150.367 31.066 1149.539 31.069 Z " fill="rgb(225,225,225)"/><path d=" M 1094.746 31.069 L 980.823 31.069 C 979.995 31.069 979.324 30.398 979.324 29.57 C 979.324 28.742 979.995 28.071 980.823 28.071 L 1094.746 28.071 C 1095.574 28.071 1096.245 28.742 1096.245 29.57 C 1096.245 30.398 1095.574 31.069 1094.746 31.069 Z " fill="rgb(225,225,225)"/><path d=" M 398.925 31.069 L 320.268 31.069 C 319.44 31.069 318.769 30.398 318.769 29.57 C 318.769 28.742 319.44 28.071 320.268 28.071 L 398.955 28.071 C 399.783 28.079 400.447 28.757 400.439 29.585 C 400.43 30.413 399.753 31.077 398.925 31.069 L 398.925 31.069 L 398.925 31.069 Z " fill="rgb(225,225,225)"/><path d=" M 454.607 31.069 L 412.825 31.069 C 411.998 31.069 411.326 30.398 411.326 29.57 C 411.326 28.742 411.998 28.071 412.825 28.071 L 454.607 28.071 C 455.435 28.071 456.106 28.742 456.106 29.57 C 456.106 30.398 455.435 31.069 454.607 31.069 Z " fill="rgb(225,225,225)"/><path d=" M 1331.656 153.287 L 1322.592 153.287 C 1321.765 153.287 1321.093 152.616 1321.093 151.788 C 1321.093 150.96 1321.765 150.289 1322.592 150.289 L 1331.656 150.289 C 1332.484 150.289 1333.155 150.96 1333.155 151.788 C 1333.155 152.616 1332.484 153.287 1331.656 153.287 Z " fill="rgb(225,225,225)"/><path d=" M 1383.471 153.287 L 1348.215 153.287 C 1347.387 153.287 1346.716 152.616 1346.716 151.788 C 1346.716 150.96 1347.387 150.289 1348.215 150.289 L 1383.471 150.289 C 1384.299 150.289 1384.97 150.96 1384.97 151.788 C 1384.97 152.616 1384.299 153.287 1383.471 153.287 Z " fill="rgb(225,225,225)"/><path d=" M 1289.994 173.573 L 1266.2 173.573 C 1265.373 173.573 1264.701 172.902 1264.701 172.074 C 1264.701 171.246 1265.373 170.575 1266.2 170.575 L 1289.994 170.575 C 1290.822 170.575 1291.493 171.246 1291.493 172.074 C 1291.493 172.902 1290.822 173.573 1289.994 173.573 Z " fill="rgb(225,225,225)"/><path d=" M 1417.878 173.573 L 1383.641 173.573 C 1382.813 173.573 1382.142 172.902 1382.142 172.074 C 1382.142 171.246 1382.813 170.575 1383.641 170.575 L 1417.878 170.575 C 1418.706 170.575 1419.377 171.246 1419.377 172.074 C 1419.377 172.902 1418.706 173.573 1417.878 173.573 Z " fill="rgb(225,225,225)"/><path d=" M 1377.226 132.771 L 1358.808 132.771 C 1357.98 132.771 1357.309 132.099 1357.309 131.272 C 1357.309 130.444 1357.98 129.773 1358.808 129.773 L 1377.226 129.773 C 1378.053 129.773 1378.725 130.444 1378.725 131.272 C 1378.725 132.099 1378.053 132.771 1377.226 132.771 Z " fill="rgb(225,225,225)"/><path d=" M 1259.055 234.692 L 1246.644 234.692 C 1245.816 234.692 1245.145 234.021 1245.145 233.193 C 1245.145 232.365 1245.816 231.694 1246.644 231.694 L 1259.055 231.694 C 1259.883 231.694 1260.554 232.365 1260.554 233.193 C 1260.554 234.021 1259.883 234.692 1259.055 234.692 Z " fill="rgb(225,225,225)"/><path d=" M 1296.37 234.692 L 1272.216 234.692 C 1271.388 234.692 1270.717 234.021 1270.717 233.193 C 1270.717 232.365 1271.388 231.694 1272.216 231.694 L 1296.37 231.694 C 1297.198 231.694 1297.869 232.365 1297.869 233.193 C 1297.869 234.021 1297.198 234.692 1296.37 234.692 Z " fill="rgb(225,225,225)"/><path d=" M 1336.833 234.692 L 1322.592 234.692 C 1321.765 234.692 1321.093 234.021 1321.093 233.193 C 1321.093 232.365 1321.765 231.694 1322.592 231.694 L 1336.833 231.694 C 1337.661 231.694 1338.332 232.365 1338.332 233.193 C 1338.332 234.021 1337.661 234.692 1336.833 234.692 Z " fill="rgb(225,225,225)"/><path d=" M 1389.128 234.692 L 1351.663 234.692 C 1350.835 234.692 1350.164 234.021 1350.164 233.193 C 1350.164 232.365 1350.835 231.694 1351.663 231.694 L 1389.128 231.694 C 1389.955 231.694 1390.627 232.365 1390.627 233.193 C 1390.627 234.021 1389.955 234.692 1389.128 234.692 Z " fill="rgb(225,225,225)"/><path d=" M 1444.45 234.692 L 1424.334 234.692 C 1423.506 234.692 1422.835 234.021 1422.835 233.193 C 1422.835 232.365 1423.506 231.694 1424.334 231.694 L 1444.45 231.694 C 1445.278 231.694 1445.949 232.365 1445.949 233.193 C 1445.949 234.021 1445.278 234.692 1444.45 234.692 Z " fill="rgb(225,225,225)"/><path d=" M 1401.04 193.889 L 1358.798 193.889 C 1357.97 193.889 1357.299 193.218 1357.299 192.39 C 1357.299 191.562 1357.97 190.891 1358.798 190.891 L 1401.04 190.891 C 1401.867 190.891 1402.539 191.562 1402.539 192.39 C 1402.539 193.218 1401.867 193.889 1401.04 193.889 Z " fill="rgb(225,225,225)"/><path d=" M 1350.663 214.176 L 1322.003 214.176 C 1321.175 214.176 1320.504 213.505 1320.504 212.677 C 1320.504 211.849 1321.175 211.178 1322.003 211.178 L 1350.663 211.178 C 1351.491 211.178 1352.162 211.849 1352.162 212.677 C 1352.162 213.505 1351.491 214.176 1350.663 214.176 Z " fill="rgb(225,225,225)"/><path d=" M 1377.226 214.176 L 1366.683 214.176 C 1365.855 214.176 1365.184 213.505 1365.184 212.677 C 1365.184 211.849 1365.855 211.178 1366.683 211.178 L 1377.226 211.178 C 1378.053 211.178 1378.725 211.849 1378.725 212.677 C 1378.725 213.505 1378.053 214.176 1377.226 214.176 Z " fill="rgb(225,225,225)"/><path d=" M 1279.731 296.16 L 1252.64 296.16 C 1251.812 296.16 1251.141 295.489 1251.141 294.661 C 1251.141 293.834 1251.812 293.162 1252.64 293.162 L 1279.701 293.162 C 1280.529 293.154 1281.207 293.819 1281.215 294.646 C 1281.224 295.474 1280.559 296.152 1279.731 296.16 Z " fill="rgb(225,225,225)"/><path d=" M 1322.003 296.16 L 1295.8 296.16 C 1294.973 296.16 1294.301 295.489 1294.301 294.661 C 1294.301 293.834 1294.973 293.162 1295.8 293.162 L 1322.003 293.162 C 1322.831 293.162 1323.502 293.834 1323.502 294.661 C 1323.502 295.489 1322.831 296.16 1322.003 296.16 Z " fill="rgb(225,225,225)"/><path d=" M 1389.128 296.16 L 1339.731 296.16 C 1338.903 296.16 1338.232 295.489 1338.232 294.661 C 1338.232 293.834 1338.903 293.162 1339.731 293.162 L 1389.128 293.162 C 1389.955 293.162 1390.627 293.834 1390.627 294.661 C 1390.627 295.489 1389.955 296.16 1389.128 296.16 Z " fill="rgb(225,225,225)"/><path d=" M 1262.273 316.067 L 1233.293 316.067 C 1232.465 316.067 1231.794 315.396 1231.794 314.568 C 1231.794 313.74 1232.465 313.069 1233.293 313.069 L 1262.273 313.069 C 1263.101 313.069 1263.772 313.74 1263.772 314.568 C 1263.772 315.396 1263.101 316.067 1262.273 316.067 Z " fill="rgb(225,225,225)"/><path d=" M 1441.982 336.313 L 1417.778 336.313 C 1416.95 336.313 1416.279 335.642 1416.279 334.814 C 1416.279 333.987 1416.95 333.315 1417.778 333.315 L 1441.982 333.315 C 1442.81 333.315 1443.481 333.987 1443.481 334.814 C 1443.481 335.642 1442.81 336.313 1441.982 336.313 Z " fill="rgb(225,225,225)"/><path d=" M 1304.854 275.265 L 1289.615 275.265 C 1288.787 275.265 1288.116 274.593 1288.116 273.766 C 1288.116 272.938 1288.787 272.267 1289.615 272.267 L 1304.804 272.267 C 1305.632 272.253 1306.315 272.913 1306.328 273.741 C 1306.342 274.568 1305.682 275.251 1304.854 275.265 L 1304.854 275.265 L 1304.854 275.265 Z " fill="rgb(225,225,225)"/><path d=" M 1350.004 275.265 L 1321.153 275.265 C 1320.325 275.265 1319.654 274.593 1319.654 273.766 C 1319.654 272.938 1320.325 272.267 1321.153 272.267 L 1350.004 272.267 C 1350.832 272.267 1351.503 272.938 1351.503 273.766 C 1351.503 274.593 1350.832 275.265 1350.004 275.265 Z " fill="rgb(225,225,225)"/><path d=" M 1447.248 275.265 L 1417.768 275.265 C 1416.94 275.265 1416.269 274.593 1416.269 273.766 C 1416.269 272.938 1416.94 272.267 1417.768 272.267 L 1447.248 272.267 C 1448.076 272.267 1448.747 272.938 1448.747 273.766 C 1448.747 274.593 1448.076 275.265 1447.248 275.265 Z " fill="rgb(225,225,225)"/><path d=" M 1339.081 377.156 L 1296.71 377.156 C 1295.882 377.156 1295.211 376.485 1295.211 375.657 C 1295.211 374.829 1295.882 374.158 1296.71 374.158 L 1339.081 374.158 C 1339.909 374.158 1340.58 374.829 1340.58 375.657 C 1340.58 376.485 1339.909 377.156 1339.081 377.156 Z " fill="rgb(225,225,225)"/><path d=" M 1374.268 377.156 L 1353.572 377.156 C 1352.744 377.156 1352.073 376.485 1352.073 375.657 C 1352.073 374.829 1352.744 374.158 1353.572 374.158 L 1374.238 374.158 C 1375.065 374.15 1375.743 374.814 1375.752 375.642 C 1375.76 376.47 1375.095 377.148 1374.268 377.156 L 1374.268 377.156 L 1374.268 377.156 Z " fill="rgb(225,225,225)"/><path d=" M 1440.573 397.442 L 1417.768 397.442 C 1416.94 397.442 1416.269 396.771 1416.269 395.943 C 1416.269 395.115 1416.94 394.444 1417.768 394.444 L 1440.573 394.444 C 1441.401 394.444 1442.072 395.115 1442.072 395.943 C 1442.072 396.771 1441.401 397.442 1440.573 397.442 Z " fill="rgb(225,225,225)"/><path d=" M 1388.128 336.353 L 1357.799 336.353 C 1356.971 336.353 1356.3 335.682 1356.3 334.854 C 1356.3 334.027 1356.971 333.355 1357.799 333.355 L 1388.128 333.355 C 1388.956 333.355 1389.627 334.027 1389.627 334.854 C 1389.627 335.682 1388.956 336.353 1388.128 336.353 Z " fill="rgb(225,225,225)"/><path d=" M 1320.174 356.64 L 1310.99 356.64 C 1310.162 356.64 1309.491 355.969 1309.491 355.141 C 1309.491 354.313 1310.162 353.642 1310.99 353.642 L 1320.174 353.642 C 1321.002 353.642 1321.673 354.313 1321.673 355.141 C 1321.673 355.969 1321.002 356.64 1320.174 356.64 Z " fill="rgb(225,225,225)"/><path d=" M 1353.572 356.64 L 1332.466 356.64 C 1331.638 356.64 1330.967 355.969 1330.967 355.141 C 1330.967 354.313 1331.638 353.642 1332.466 353.642 L 1353.572 353.642 C 1354.399 353.642 1355.071 354.313 1355.071 355.141 C 1355.071 355.969 1354.399 356.64 1353.572 356.64 Z " fill="rgb(225,225,225)"/><path d=" M 1441.732 356.64 L 1417.878 356.64 C 1417.05 356.64 1416.379 355.969 1416.379 355.141 C 1416.379 354.313 1417.05 353.642 1417.878 353.642 L 1441.732 353.642 C 1442.56 353.642 1443.231 354.313 1443.231 355.141 C 1443.231 355.969 1442.56 356.64 1441.732 356.64 Z " fill="rgb(225,225,225)"/><path d=" M 1388.428 438.245 L 1337.123 438.245 C 1336.295 438.245 1335.624 437.574 1335.624 436.746 C 1335.624 435.918 1336.295 435.247 1337.123 435.247 L 1388.428 435.247 C 1389.256 435.247 1389.927 435.918 1389.927 436.746 C 1389.927 437.574 1389.256 438.245 1388.428 438.245 Z " fill="rgb(225,225,225)"/><path d=" M 1392.945 458.531 L 1365.843 458.531 C 1365.015 458.531 1364.344 457.86 1364.344 457.032 C 1364.344 456.204 1365.015 455.533 1365.843 455.533 L 1392.945 455.533 C 1393.773 455.533 1394.444 456.204 1394.444 457.032 C 1394.444 457.86 1393.773 458.531 1392.945 458.531 Z " fill="rgb(225,225,225)"/><path d=" M 1351.413 417.729 L 1309.601 417.729 C 1308.773 417.729 1308.102 417.057 1308.102 416.23 C 1308.102 415.402 1308.773 414.731 1309.601 414.731 L 1351.413 414.731 C 1352.241 414.731 1352.912 415.402 1352.912 416.23 C 1352.912 417.057 1352.241 417.729 1351.413 417.729 Z " fill="rgb(225,225,225)"/><path d=" M 1388.428 417.729 L 1375.797 417.729 C 1374.969 417.729 1374.298 417.057 1374.298 416.23 C 1374.298 415.402 1374.969 414.731 1375.797 414.731 L 1388.428 414.731 C 1389.256 414.731 1389.927 415.402 1389.927 416.23 C 1389.927 417.057 1389.256 417.729 1388.428 417.729 Z " fill="rgb(225,225,225)"/><path d=" M 1320.274 519.65 L 1274.305 519.65 C 1273.477 519.65 1272.806 518.979 1272.806 518.151 C 1272.806 517.323 1273.477 516.652 1274.305 516.652 L 1320.274 516.652 C 1321.102 516.652 1321.773 517.323 1321.773 518.151 C 1321.773 518.979 1321.102 519.65 1320.274 519.65 Z " fill="rgb(225,225,225)"/><path d=" M 1391.476 519.65 L 1333.905 519.65 C 1333.077 519.65 1332.406 518.979 1332.406 518.151 C 1332.406 517.323 1333.077 516.652 1333.905 516.652 L 1391.476 516.652 C 1392.304 516.652 1392.975 517.323 1392.975 518.151 C 1392.975 518.979 1392.304 519.65 1391.476 519.65 Z " fill="rgb(225,225,225)"/><path d=" M 1276.853 539.936 L 1220.301 539.936 C 1219.473 539.936 1218.802 539.265 1218.802 538.437 C 1218.802 537.609 1219.473 536.938 1220.301 536.938 L 1276.853 536.938 C 1277.681 536.938 1278.352 537.609 1278.352 538.437 C 1278.352 539.265 1277.681 539.936 1276.853 539.936 Z " fill="rgb(225,225,225)"/><path d=" M 1322.233 539.936 L 1292.613 539.936 C 1291.785 539.936 1291.114 539.265 1291.114 538.437 C 1291.114 537.609 1291.785 536.938 1292.613 536.938 L 1322.213 536.938 C 1323.041 536.933 1323.716 537.599 1323.722 538.427 C 1323.727 539.255 1323.061 539.931 1322.233 539.936 L 1322.233 539.936 L 1322.233 539.936 Z " fill="rgb(225,225,225)"/><path d=" M 1299.028 478.847 L 1284.918 478.847 C 1284.09 478.847 1283.419 478.176 1283.419 477.348 C 1283.419 476.52 1284.09 475.849 1284.918 475.849 L 1299.028 475.849 C 1299.856 475.849 1300.527 476.52 1300.527 477.348 C 1300.527 478.176 1299.856 478.847 1299.028 478.847 L 1299.028 478.847 L 1299.028 478.847 Z " fill="rgb(225,225,225)"/><path d=" M 1443.341 478.847 L 1420.526 478.847 C 1419.699 478.847 1419.027 478.176 1419.027 477.348 C 1419.027 476.52 1419.699 475.849 1420.526 475.849 L 1443.371 475.849 C 1444.199 475.858 1444.863 476.535 1444.855 477.363 C 1444.847 478.191 1444.169 478.856 1443.341 478.847 Z " fill="rgb(225,225,225)"/><path d=" M 1324.201 499.134 L 1290.674 499.134 C 1289.846 499.134 1289.175 498.463 1289.175 497.635 C 1289.175 496.807 1289.846 496.136 1290.674 496.136 L 1324.201 496.136 C 1325.029 496.136 1325.7 496.807 1325.7 497.635 C 1325.7 498.463 1325.029 499.134 1324.201 499.134 Z " fill="rgb(225,225,225)"/><path d=" M 1358.798 499.134 L 1344.478 499.134 C 1343.65 499.134 1342.979 498.463 1342.979 497.635 C 1342.979 496.807 1343.65 496.136 1344.478 496.136 L 1358.798 496.136 C 1359.626 496.136 1360.297 496.807 1360.297 497.635 C 1360.297 498.463 1359.626 499.134 1358.798 499.134 Z " fill="rgb(225,225,225)"/><path d=" M 1208.189 601.025 L 1191.681 601.025 C 1190.853 601.025 1190.182 600.354 1190.182 599.526 C 1190.182 598.698 1190.853 598.027 1191.681 598.027 L 1208.169 598.027 C 1208.997 598.022 1209.673 598.688 1209.678 599.516 C 1209.684 600.344 1209.017 601.02 1208.189 601.025 Z " fill="rgb(225,225,225)"/><path d=" M 1406.826 601.025 L 1371.27 601.025 C 1370.442 601.025 1369.771 600.354 1369.771 599.526 C 1369.771 598.698 1370.442 598.027 1371.27 598.027 L 1406.826 598.027 C 1407.654 598.027 1408.325 598.698 1408.325 599.526 C 1408.325 600.354 1407.654 601.025 1406.826 601.025 Z " fill="rgb(225,225,225)"/><path d=" M 1440.863 601.025 L 1421.686 601.025 C 1420.858 601.025 1420.187 600.354 1420.187 599.526 C 1420.187 598.698 1420.858 598.027 1421.686 598.027 L 1440.863 598.027 C 1441.691 598.027 1442.362 598.698 1442.362 599.526 C 1442.362 600.354 1441.691 601.025 1440.863 601.025 Z " fill="rgb(225,225,225)"/><path d=" M 1355.14 621.311 L 1341.71 621.311 C 1340.882 621.311 1340.211 620.64 1340.211 619.812 C 1340.211 618.984 1340.882 618.313 1341.71 618.313 L 1355.14 618.313 C 1355.968 618.313 1356.639 618.984 1356.639 619.812 C 1356.639 620.64 1355.968 621.311 1355.14 621.311 Z " fill="rgb(225,225,225)"/><path d=" M 1325.91 621.311 L 1299.928 621.311 C 1299.1 621.311 1298.429 620.64 1298.429 619.812 C 1298.429 618.984 1299.1 618.313 1299.928 618.313 L 1325.91 618.313 C 1326.738 618.313 1327.409 618.984 1327.409 619.812 C 1327.409 620.64 1326.738 621.311 1325.91 621.311 Z " fill="rgb(225,225,225)"/><path d=" M 1149.849 621.311 L 1128.073 621.311 C 1127.246 621.311 1126.574 620.64 1126.574 619.812 C 1126.574 618.984 1127.246 618.313 1128.073 618.313 L 1149.849 618.313 C 1150.677 618.313 1151.348 618.984 1151.348 619.812 C 1151.348 620.64 1150.677 621.311 1149.849 621.311 Z " fill="rgb(225,225,225)"/><path d=" M 1116.731 621.311 L 1053.774 621.311 C 1052.946 621.311 1052.275 620.64 1052.275 619.812 C 1052.275 618.984 1052.946 618.313 1053.774 618.313 L 1116.731 618.313 C 1117.559 618.313 1118.23 618.984 1118.23 619.812 C 1118.23 620.64 1117.559 621.311 1116.731 621.311 Z " fill="rgb(225,225,225)"/><path d=" M 1217.443 621.311 L 1166.957 621.311 C 1166.129 621.311 1165.458 620.64 1165.458 619.812 C 1165.458 618.984 1166.129 618.313 1166.957 618.313 L 1217.443 618.313 C 1218.271 618.313 1218.942 618.984 1218.942 619.812 C 1218.942 620.64 1218.271 621.311 1217.443 621.311 Z " fill="rgb(225,225,225)"/><path d=" M 1385.8 641.608 L 1319.904 641.608 C 1319.076 641.608 1318.405 640.937 1318.405 640.109 C 1318.405 639.281 1319.076 638.61 1319.904 638.61 L 1385.8 638.61 C 1386.628 638.61 1387.299 639.281 1387.299 640.109 C 1387.299 640.937 1386.628 641.608 1385.8 641.608 Z " fill="rgb(225,225,225)"/><path d=" M 1185.185 641.608 L 1148.56 641.608 C 1147.732 641.608 1147.061 640.937 1147.061 640.109 C 1147.061 639.281 1147.732 638.61 1148.56 638.61 L 1185.185 638.61 C 1186.013 638.61 1186.684 639.281 1186.684 640.109 C 1186.684 640.937 1186.013 641.608 1185.185 641.608 Z " fill="rgb(225,225,225)"/><path d=" M 1077.837 641.608 L 1058.98 641.608 C 1058.152 641.608 1057.481 640.937 1057.481 640.109 C 1057.481 639.281 1058.152 638.61 1058.98 638.61 L 1077.837 638.61 C 1078.665 638.61 1079.336 639.281 1079.336 640.109 C 1079.336 640.937 1078.665 641.608 1077.837 641.608 Z " fill="rgb(225,225,225)"/><path d=" M 1045.939 641.608 L 978.115 641.608 C 977.287 641.608 976.616 640.937 976.616 640.109 C 976.616 639.281 977.287 638.61 978.115 638.61 L 1045.949 638.61 C 1046.777 638.612 1047.446 639.286 1047.443 640.114 C 1047.44 640.942 1046.767 641.61 1045.939 641.608 Z " fill="rgb(225,225,225)"/><path d=" M 322.446 621.311 L 305.788 621.311 C 304.96 621.311 304.289 620.64 304.289 619.812 C 304.289 618.984 304.96 618.313 305.788 618.313 L 322.436 618.313 C 323.264 618.311 323.938 618.979 323.94 619.807 C 323.943 620.635 323.274 621.309 322.446 621.311 Z " fill="rgb(225,225,225)"/><path d=" M 64.89 621.311 L 45.073 621.311 C 44.245 621.311 43.574 620.64 43.574 619.812 C 43.574 618.984 44.245 618.313 45.073 618.313 L 64.89 618.313 C 65.718 618.313 66.389 618.984 66.389 619.812 C 66.389 620.64 65.718 621.311 64.89 621.311 Z " fill="rgb(225,225,225)"/><path d=" M 352.316 621.311 L 334.518 621.311 C 333.69 621.311 333.019 620.64 333.019 619.812 C 333.019 618.984 333.69 618.313 334.518 618.313 L 352.316 618.313 C 353.144 618.313 353.815 618.984 353.815 619.812 C 353.815 620.64 353.144 621.311 352.316 621.311 Z " fill="rgb(225,225,225)"/><path d=" M 353.096 641.608 L 287.2 641.608 C 286.372 641.608 285.701 640.937 285.701 640.109 C 285.701 639.281 286.372 638.61 287.2 638.61 L 353.096 638.61 C 353.924 638.61 354.595 639.281 354.595 640.109 C 354.595 640.937 353.924 641.608 353.096 641.608 Z " fill="rgb(225,225,225)"/><path d=" M 272.4 641.608 L 211.911 641.608 C 211.083 641.608 210.412 640.937 210.412 640.109 C 210.412 639.281 211.083 638.61 211.911 638.61 L 272.4 638.61 C 273.228 638.61 273.899 639.281 273.899 640.109 C 273.899 640.937 273.228 641.608 272.4 641.608 Z " fill="rgb(225,225,225)"/><path d=" M 184 641.608 L 168.15 641.608 C 167.322 641.608 166.651 640.937 166.651 640.109 C 166.651 639.281 167.322 638.61 168.15 638.61 L 183.99 638.61 C 184.817 638.607 185.491 639.276 185.494 640.104 C 185.496 640.932 184.827 641.605 184 641.608 Z " fill="rgb(225,225,225)"/><path d=" M 98.187 641.608 L 26.236 641.608 C 25.408 641.608 24.737 640.937 24.737 640.109 C 24.737 639.281 25.408 638.61 26.236 638.61 L 98.187 638.61 C 99.015 638.61 99.686 639.281 99.686 640.109 C 99.686 640.937 99.015 641.608 98.187 641.608 Z " fill="rgb(225,225,225)"/><path d=" M 433.711 641.608 L 367.896 641.608 C 367.068 641.608 366.397 640.937 366.397 640.109 C 366.397 639.281 367.068 638.61 367.896 638.61 L 433.711 638.61 C 434.539 638.61 435.21 639.281 435.21 640.109 C 435.21 640.937 434.539 641.608 433.711 641.608 Z " fill="rgb(225,225,225)"/><path d=" M 1274.295 560.223 L 1261.014 560.223 C 1260.186 560.223 1259.515 559.551 1259.515 558.724 C 1259.515 557.896 1260.186 557.225 1261.014 557.225 L 1274.295 557.225 C 1275.123 557.225 1275.794 557.896 1275.794 558.724 C 1275.794 559.551 1275.123 560.223 1274.295 560.223 Z " fill="rgb(225,225,225)"/><path d=" M 1272.986 621.311 L 1242.586 621.311 C 1241.758 621.311 1241.087 620.64 1241.087 619.812 C 1241.087 618.984 1241.758 618.313 1242.586 618.313 L 1272.986 618.313 C 1282.518 618.302 1290.243 610.577 1290.254 601.045 L 1290.254 577.481 C 1290.265 566.293 1299.332 557.226 1310.521 557.215 L 1441.732 557.215 C 1442.56 557.215 1443.231 557.886 1443.231 558.714 C 1443.231 559.541 1442.56 560.213 1441.732 560.213 L 1310.521 560.213 C 1300.988 560.224 1293.263 567.948 1293.252 577.481 L 1293.252 601.045 C 1293.241 612.233 1284.174 621.3 1272.986 621.311 L 1272.986 621.311 L 1272.986 621.311 Z " fill="rgb(225,225,225)"/><path d=" M 146.965 71.792 C 134.871 71.786 125.066 61.99 125.049 49.896 C 125.049 49.069 125.72 48.397 126.548 48.397 C 127.376 48.397 128.047 49.069 128.047 49.896 C 128.058 60.328 136.512 68.783 146.945 68.794 L 151.312 68.794 L 238.723 68.794 C 248.255 68.783 255.98 61.058 255.991 51.525 L 255.991 1.559 C 255.991 0.731 256.662 0.06 257.49 0.06 C 258.318 0.06 258.989 0.731 258.989 1.559 L 258.989 51.525 C 258.978 62.714 249.911 71.781 238.723 71.792 L 151.332 71.792 L 146.965 71.792 L 146.965 71.792 Z " fill="rgb(225,225,225)"/><path d=" M 190.765 585.745 C 187.172 585.745 184.259 582.833 184.259 579.24 C 184.259 575.647 187.172 572.734 190.765 572.734 C 194.358 572.734 197.271 575.647 197.271 579.24 C 197.265 582.83 194.356 585.74 190.765 585.745 L 190.765 585.745 L 190.765 585.745 Z  M 190.765 575.752 C 188.828 575.752 187.257 577.322 187.257 579.26 C 187.257 581.197 188.828 582.767 190.765 582.767 C 192.702 582.767 194.273 581.197 194.273 579.26 C 194.286 578.321 193.922 577.416 193.263 576.747 C 192.604 576.078 191.704 575.702 190.765 575.702 L 190.765 575.752 L 190.765 575.752 Z " fill="rgb(225,225,225)"/><path d=" M 56.795 402.449 C 53.202 402.449 50.29 399.536 50.29 395.943 C 50.29 392.35 53.202 389.438 56.795 389.438 C 60.388 389.438 63.301 392.35 63.301 395.943 C 63.295 399.534 60.386 402.443 56.795 402.449 L 56.795 402.449 L 56.795 402.449 Z  M 56.795 392.456 C 54.858 392.456 53.288 394.026 53.288 395.963 C 53.288 397.9 54.858 399.471 56.795 399.471 C 58.733 399.471 60.303 397.9 60.303 395.963 C 60.306 395.031 59.937 394.136 59.279 393.476 C 58.621 392.816 57.727 392.446 56.795 392.446 L 56.795 392.456 L 56.795 392.456 Z " fill="rgb(225,225,225)"/><path d=" M 143.487 219.182 C 139.894 219.182 136.981 216.27 136.981 212.677 C 136.981 209.084 139.894 206.171 143.487 206.171 C 147.08 206.171 149.993 209.084 149.993 212.677 C 149.987 216.267 147.078 219.177 143.487 219.182 L 143.487 219.182 L 143.487 219.182 Z  M 143.487 209.189 C 141.55 209.189 139.979 210.759 139.979 212.697 C 139.979 214.634 141.55 216.204 143.487 216.204 C 145.424 216.204 146.995 214.634 146.995 212.697 C 147 211.763 146.633 210.866 145.974 210.203 C 145.316 209.541 144.421 209.169 143.487 209.169 L 143.487 209.189 L 143.487 209.189 Z " fill="rgb(225,225,225)"/><path d=" M 104.823 295.691 C 104.426 295.69 104.045 295.532 103.764 295.251 L 83.377 274.905 C 82.827 274.314 82.843 273.394 83.414 272.823 C 83.985 272.252 84.905 272.236 85.496 272.786 L 105.882 293.172 C 106.283 293.604 106.394 294.231 106.165 294.773 C 105.937 295.316 105.412 295.675 104.823 295.691 Z " fill="rgb(225,225,225)"/><path d=" M 341.713 51.186 C 341.107 51.185 340.561 50.82 340.33 50.26 C 340.098 49.7 340.226 49.056 340.654 48.627 L 360.741 28.541 C 361.331 27.99 362.252 28.007 362.822 28.578 C 363.393 29.148 363.409 30.069 362.859 30.659 L 342.773 50.746 C 342.492 51.027 342.111 51.185 341.713 51.186 L 341.713 51.186 L 341.713 51.186 Z " fill="rgb(225,225,225)"/><path d=" M 1357.799 295.471 C 1357.401 295.471 1357.02 295.312 1356.739 295.031 L 1336.583 274.825 C 1336.033 274.234 1336.049 273.314 1336.62 272.743 C 1337.191 272.172 1338.111 272.156 1338.702 272.706 L 1358.908 292.913 C 1359.343 293.348 1359.468 294.004 1359.223 294.569 C 1358.979 295.134 1358.414 295.491 1357.799 295.471 Z " fill="rgb(225,225,225)"/><path d=" M 1315.977 91.888 C 1315.371 91.888 1314.825 91.522 1314.593 90.963 C 1314.361 90.403 1314.489 89.758 1314.918 89.33 L 1335.124 69.123 C 1335.715 68.573 1336.635 68.589 1337.206 69.16 C 1337.777 69.731 1337.793 70.651 1337.243 71.242 L 1317.036 91.448 C 1316.755 91.73 1316.374 91.888 1315.977 91.888 Z " fill="rgb(225,225,225)"/><path d=" M 1292.413 519.49 C 1291.807 519.489 1291.261 519.124 1291.029 518.564 C 1290.797 518.005 1290.925 517.36 1291.353 516.932 L 1311.6 496.755 C 1312.19 496.205 1313.111 496.221 1313.682 496.792 C 1314.252 497.363 1314.269 498.283 1313.718 498.874 L 1293.512 519.08 C 1293.216 519.36 1292.82 519.508 1292.413 519.49 Z " fill="rgb(225,225,225)"/><path d=" M 122.201 600.945 C 121.595 600.945 121.049 600.579 120.818 600.02 C 120.586 599.46 120.714 598.815 121.142 598.387 L 141.388 578.18 C 141.762 577.779 142.325 577.614 142.856 577.75 C 143.387 577.886 143.802 578.3 143.937 578.831 C 144.073 579.363 143.908 579.925 143.507 580.299 L 123.3 600.505 C 123.01 600.797 122.612 600.956 122.201 600.945 Z " fill="rgb(225,225,225)"/><path d=" M 123.78 397.442 L 61.822 397.442 C 60.994 397.442 60.323 396.771 60.323 395.943 C 60.323 395.115 60.994 394.444 61.822 394.444 L 123.78 394.444 C 128.338 394.495 132.725 392.713 135.955 389.497 C 139.185 386.282 140.988 381.904 140.959 377.346 L 141.178 333.275 C 141.211 322.11 150.269 313.075 161.435 313.069 L 178.293 313.069 C 188.678 313.069 197.103 304.666 197.131 294.282 C 197.131 293.454 197.802 292.783 198.63 292.783 C 199.458 292.783 200.129 293.454 200.129 294.282 C 200.101 306.321 190.333 316.067 178.293 316.067 L 161.445 316.067 C 151.923 316.067 144.198 323.774 144.176 333.295 L 143.957 377.356 C 143.918 388.468 134.893 397.453 123.78 397.442 L 123.78 397.442 L 123.78 397.442 Z " fill="rgb(225,225,225)"/><path d=" M 102.485 499.134 C 101.657 499.134 100.986 498.463 100.986 497.635 C 100.986 496.807 101.657 496.136 102.485 496.136 C 112.773 496.086 121.08 487.717 121.052 477.428 C 121.052 476.6 121.723 475.929 122.551 475.929 C 123.379 475.929 124.05 476.6 124.05 477.428 C 124.072 489.37 114.427 499.079 102.485 499.134 L 102.485 499.134 L 102.485 499.134 Z " fill="rgb(225,225,225)"/><path d=" M 315.271 36.066 C 311.678 36.066 308.766 33.153 308.766 29.56 C 308.766 25.967 311.678 23.054 315.271 23.054 C 318.864 23.054 321.777 25.967 321.777 29.56 C 321.771 33.151 318.862 36.06 315.271 36.066 Z  M 315.271 26.072 C 313.334 26.072 311.764 27.643 311.764 29.58 C 311.764 31.517 313.334 33.088 315.271 33.088 C 317.208 33.088 318.779 31.517 318.779 29.58 C 318.779 28.65 318.409 27.758 317.751 27.1 C 317.094 26.442 316.201 26.072 315.271 26.072 L 315.271 26.072 L 315.271 26.072 Z " fill="rgb(225,225,225)"/><path d=" M 1382.232 137.777 C 1378.639 137.777 1375.727 134.865 1375.727 131.272 C 1375.727 127.679 1378.639 124.766 1382.232 124.766 C 1385.825 124.766 1388.738 127.679 1388.738 131.272 C 1388.732 134.862 1385.823 137.772 1382.232 137.777 Z  M 1382.232 127.784 C 1380.295 127.784 1378.725 129.354 1378.725 131.292 C 1378.725 133.229 1380.295 134.799 1382.232 134.799 C 1384.169 134.799 1385.74 133.229 1385.74 131.292 C 1385.745 130.358 1385.378 129.46 1384.72 128.798 C 1384.061 128.136 1383.166 127.764 1382.232 127.764 L 1382.232 127.784 L 1382.232 127.784 Z " fill="rgb(225,225,225)"/><path d=" M 1370.77 422.735 C 1367.177 422.735 1364.264 419.822 1364.264 416.23 C 1364.264 412.637 1367.177 409.724 1370.77 409.724 C 1374.363 409.724 1377.276 412.637 1377.276 416.23 C 1377.276 417.955 1376.59 419.61 1375.37 420.83 C 1374.15 422.05 1372.495 422.735 1370.77 422.735 L 1370.77 422.735 L 1370.77 422.735 Z  M 1370.77 412.742 C 1368.833 412.742 1367.262 414.312 1367.262 416.25 C 1367.262 418.187 1368.833 419.757 1370.77 419.757 C 1372.707 419.757 1374.278 418.187 1374.278 416.25 C 1374.28 415.318 1373.912 414.423 1373.254 413.763 C 1372.596 413.103 1371.702 412.732 1370.77 412.732 L 1370.77 412.742 L 1370.77 412.742 Z " fill="rgb(225,225,225)"/><path d=" M 1237.42 626.318 C 1233.827 626.318 1230.914 623.405 1230.914 619.812 C 1230.914 616.219 1233.827 613.307 1237.42 613.307 C 1241.013 613.307 1243.925 616.219 1243.925 619.812 C 1243.92 623.403 1241.01 626.312 1237.42 626.318 L 1237.42 626.318 L 1237.42 626.318 Z  M 1237.42 616.325 C 1235.483 616.325 1233.912 617.895 1233.912 619.832 C 1233.912 621.77 1235.483 623.34 1237.42 623.34 C 1239.357 623.34 1240.927 621.77 1240.927 619.832 C 1240.93 618.9 1240.562 618.006 1239.904 617.346 C 1239.245 616.686 1238.352 616.315 1237.42 616.315 L 1237.42 616.325 L 1237.42 616.325 Z " fill="rgb(225,225,225)"/><path d=" M 1373.558 193.889 C 1372.73 193.889 1372.059 193.218 1372.059 192.39 C 1372.059 191.562 1372.73 190.891 1373.558 190.891 C 1383.885 190.88 1392.254 182.511 1392.265 172.184 C 1392.265 171.356 1392.937 170.685 1393.764 170.685 C 1394.592 170.685 1395.263 171.356 1395.263 172.184 C 1395.247 184.165 1385.539 193.873 1373.558 193.889 L 1373.558 193.889 L 1373.558 193.889 Z " fill="rgb(225,225,225)"/><path d=" M 1128.723 71.632 C 1127.895 71.632 1127.224 70.961 1127.224 70.133 C 1127.235 58.133 1136.96 48.408 1148.959 48.397 C 1149.787 48.397 1150.458 49.069 1150.458 49.896 C 1150.458 50.724 1149.787 51.395 1148.959 51.395 C 1138.616 51.406 1130.233 59.789 1130.222 70.133 C 1130.222 70.961 1129.551 71.632 1128.723 71.632 Z " fill="rgb(225,225,225)"/><path d=" M 1330.377 49.826 L 1330.377 49.826 C 1329.549 49.826 1328.878 49.155 1328.878 48.327 C 1328.906 37.158 1337.965 28.117 1349.135 28.111 L 1443.071 28.111 C 1443.899 28.111 1444.57 28.782 1444.57 29.61 C 1444.57 30.438 1443.899 31.109 1443.071 31.109 L 1349.135 31.109 C 1344.555 31.098 1340.158 32.908 1336.912 36.139 C 1333.666 39.369 1331.837 43.758 1331.826 48.337 C 1331.821 49.142 1331.182 49.8 1330.377 49.826 L 1330.377 49.826 L 1330.377 49.826 Z " fill="rgb(225,225,225)"/><path d=" M 1441.982 458.531 L 1421.526 458.531 C 1410.338 458.52 1401.27 449.453 1401.259 438.265 L 1401.259 356.07 C 1401.259 355.242 1401.931 354.571 1402.758 354.571 C 1403.586 354.571 1404.257 355.242 1404.257 356.07 L 1404.257 438.265 C 1404.268 447.797 1411.993 455.522 1421.526 455.533 L 1441.992 455.533 C 1442.82 455.536 1443.489 456.209 1443.486 457.037 C 1443.483 457.865 1442.81 458.534 1441.982 458.531 Z " fill="rgb(225,225,225)"/><path d=" M 1309.741 172.784 C 1308.913 172.784 1308.242 172.112 1308.242 171.285 C 1308.22 161.769 1300.5 154.066 1290.984 154.066 L 1290.984 154.066 L 1229.205 154.146 L 1229.205 154.146 C 1218.04 154.13 1208.987 145.095 1208.949 133.93 L 1208.669 5.496 C 1208.669 4.668 1209.34 3.997 1210.168 3.997 L 1210.168 3.997 C 1210.996 3.997 1211.667 4.668 1211.667 5.496 L 1211.857 133.93 C 1211.89 143.441 1219.604 151.137 1229.115 151.148 L 1229.115 151.148 L 1290.894 151.068 L 1290.894 151.068 C 1302.063 151.074 1311.123 160.115 1311.15 171.285 C 1311.15 172.112 1310.479 172.784 1309.651 172.784 L 1309.651 172.784 L 1309.741 172.784 L 1309.741 172.784 Z " fill="rgb(225,225,225)"/><path d=" M 1402.748 364.634 C 1401.921 364.634 1401.249 363.963 1401.249 363.135 L 1401.249 272.087 C 1401.238 262.556 1393.512 254.834 1383.981 254.828 L 1328.378 254.828 C 1317.19 254.817 1308.123 245.75 1308.112 234.562 L 1308.112 227.307 L 1308.292 129.703 C 1308.32 118.533 1317.379 109.492 1328.548 109.486 L 1328.548 109.486 L 1449.007 109.566 C 1449.835 109.566 1450.506 110.237 1450.506 111.065 C 1450.506 111.893 1449.835 112.564 1449.007 112.564 L 1449.007 112.564 L 1328.548 112.484 L 1328.548 112.484 C 1319.027 112.484 1311.302 120.191 1311.28 129.713 L 1311.08 234.572 C 1311.091 244.103 1318.818 251.825 1328.349 251.83 L 1383.951 251.83 C 1395.135 251.841 1404.201 260.902 1404.217 272.087 L 1404.217 363.135 C 1404.218 363.952 1403.565 364.618 1402.748 364.634 L 1402.748 364.634 L 1402.748 364.634 Z " fill="rgb(225,225,225)"/><path d=" M 189.756 214.096 C 188.928 214.096 188.257 213.425 188.257 212.597 C 188.246 202.27 179.877 193.9 169.549 193.889 C 168.721 193.889 168.05 193.218 168.05 192.39 C 168.05 191.562 168.721 190.891 169.549 190.891 C 181.53 190.908 191.238 200.616 191.255 212.597 C 191.255 213.425 190.584 214.096 189.756 214.096 Z " fill="rgb(225,225,225)"/></g></g></g></svg>